<?xml version="1.0" encoding="utf-8"?>
<svg version="1.1" id="Layer_1" xmlns="http://www.w3.org/2000/svg" xmlns:xlink="http://www.w3.org/1999/xlink" x="0px" y="0px"
	 viewBox="0 0 1729 1673.48" enable-background="new 0 0 1729 1673.48" xml:space="preserve">
<g>
	<path stroke="#000000" d="M536.201,36.74h26.983c66.901,2.123,133.555,14.617,196.381,37.809
		c63.35,23.335,122.602,58.101,173.062,103.036c40.135,35.596,74.647,77.376,102.879,122.961
		c22.602,36.449,41.301,75.26,56.508,115.35c4.733,13.241,10.968,25.877,16.718,38.699c25.794,55.963,53.6,111.006,83.237,165.032
		c29.63,53.899,61.174,106.781,95.544,157.802c31.462,46.49,65.196,91.596,103.237,132.942
		c29.63,31.933,61.794,62.026,98.781,85.308c19.701,12.419,41.032,21.937,62.422,31.021c40.77,16.949,82.968,30.766,126.31,39.394
		c4.247,0.695,8.434,2.056,12.778,1.951v0.292c-1.361,3.14-0.621,6.609-0.74,9.922c-0.015,106.415,0,212.823-0.015,319.237
		c0.097,3.297-0.568,6.744,0.755,9.906v0.299c-12.471-0.277-24.942-0.045-37.413-0.12c-4.359,0.217-8.912-0.464-13.136,0.314
		c-0.247,38.879-0.037,77.787-0.105,116.673c0.008,37.391-0.015,74.781,0.008,112.172H82.257
		c-0.007-76.381,0.007-152.77-0.007-229.151c-14.766-0.022-29.525,0-44.292-0.008V514.056c1.219-24.344,4.209-48.576,8.636-72.531
		c7.955-42.931,20.456-85.069,37.869-125.129c21.675-49.899,51.305-96.576,88.875-136.037
		c35.783-37.809,78.774-68.673,125.727-91.088c42.938-20.613,88.994-34.318,135.858-42.452
		C468.365,40.852,502.302,38.31,536.201,36.74 M100.889,1416.635c0,67.23,0,134.467,0,201.705
		c506.968,0,1013.937,0.008,1520.905-0.007c0.015-67.23,0.015-134.46,0-201.69c-12.269-0.022-24.531,0-36.792-0.008
		c0,45.495,0,90.998,0,136.494c-13.503,0-26.998,0-40.501,0c0-45.495,0-90.998,0-136.494c-12.621-0.007-25.234,0.008-37.854-0.007
		c0,45.503,0.008,91.006,0,136.508c-13.45-0.007-26.901-0.022-40.344,0.007c-0.037-45.503,0-91.006-0.022-136.501
		c-12.553-0.015-25.114-0.008-37.667-0.008c0,45.495,0,90.998,0,136.494c-13.503,0-27.006,0-40.501,0c0-45.495,0-90.998,0-136.494
		c-12.628,0-25.256,0-37.877,0c0.007,45.495,0,90.998,0,136.494c-13.503,0-26.998,0-40.501,0c0-45.495,0-90.998,0-136.494
		c-12.621-0.007-25.234,0.008-37.847-0.007c-0.008,45.503-0.008,91.006-0.008,136.508c-13.45-0.007-26.901-0.022-40.351,0.007
		c-0.022-45.503,0.007-91.006-0.015-136.501c-12.651-0.015-25.301-0.015-37.951,0c-0.03,45.503,0.015,90.998-0.022,136.501
		c-13.45-0.037-26.901-0.007-40.344-0.007c0-45.503,0-91.006-0.007-136.508c-12.613,0.015-25.234,0-37.847,0.007
		c0,45.495,0,90.998,0,136.494c-13.503,0-27.005,0-40.501,0c0-45.495,0-90.998,0-136.494c-12.576-0.007-25.151,0.008-37.72-0.007
		c-0.008,45.503-0.008,91.006-0.008,136.508c-13.443,0-26.893-0.022-40.344,0.007c-0.037-45.503,0.008-91.006-0.022-136.501
		c-12.65-0.015-25.301-0.015-37.951,0c-0.022,45.495,0.007,90.998-0.015,136.501c-13.458-0.03-26.908-0.015-40.351-0.007
		c-0.007-45.503,0-91.006-0.007-136.508c-12.613,0.015-25.234,0-37.847,0.007c0,45.495,0,90.998,0,136.494
		c-13.503,0-27.006,0-40.501,0c0-45.495,0-90.998,0-136.494c-12.628,0-25.256-0.007-37.877,0c0,45.495,0,90.998,0,136.494
		c-13.503,0-26.998,0-40.501,0c0-45.495,0-90.998,0-136.494c-12.621-0.007-25.234,0-37.854-0.007c0,45.503,0,91.006,0,136.508
		c-13.45-0.007-26.893-0.022-40.344,0.007c-0.037-45.503,0.008-91.006-0.022-136.501c-12.553-0.015-25.114-0.008-37.667-0.008
		c0,45.495,0,90.998,0,136.494c-13.503,0-27.006,0-40.501,0c0-45.495-0.008-90.998,0-136.494c-12.628,0-25.249,0-37.877,0
		c0,45.495,0,90.998,0,136.494c-13.503,0-26.998,0-40.501,0c0-45.495,0-90.998,0-136.494c-12.621-0.007-25.234,0.008-37.854-0.007
		c0,45.503,0.008,91.006,0,136.508c-13.45-0.007-26.901-0.022-40.351,0.007c-0.022-45.503,0.007-91.006-0.015-136.501
		c-12.65-0.015-25.301-0.015-37.951,0c-0.022,45.495,0.015,90.998-0.022,136.501c-13.45-0.03-26.901-0.015-40.344-0.007
		c0-45.503,0-91.006,0-136.508c-12.621,0.007-25.241,0-37.854,0.007c0,45.495,0,90.998,0,136.494c-13.503,0-27.006,0-40.501,0
		c0-45.495-0.007-90.998,0-136.494c-12.628-0.007-25.249,0-37.877,0c0.007,45.495,0,90.998,0,136.494c-13.503,0-26.998,0-40.501,0
		c0-45.495,0-90.998,0-136.494c-12.553,0-25.114-0.007-37.667,0.008c-0.022,45.495,0,90.998-0.015,136.501
		c-13.45-0.03-26.901-0.015-40.351-0.007c-0.007-45.503,0-91.006-0.007-136.508C124.044,1416.643,112.463,1416.628,100.889,1416.635
		z"/>
	<path opacity="0.75" stroke="#000000" enable-background="new    " d="M1690.302,1078.258c0.12-3.312-0.621-6.781,0.74-9.922
		v339.065c-1.323-3.163-0.658-6.609-0.755-9.906C1690.302,1291.08,1690.287,1184.673,1690.302,1078.258z"/>
	<path fill="#FFFFFF" stroke="#FFFFFF" d="M100.889,1416.635c11.574-0.007,23.155,0.008,34.729-0.007
		c0.007,45.503,0,91.006,0.007,136.508c13.45-0.007,26.901-0.022,40.351,0.007c0.015-45.503-0.007-91.006,0.015-136.501
		c12.553-0.015,25.114-0.008,37.667-0.008c0,45.495,0,90.998,0,136.494c13.503,0,26.998,0,40.501,0c0-45.495,0.007-90.998,0-136.494
		c12.628,0,25.249-0.007,37.877,0c-0.007,45.495,0,90.998,0,136.494c13.495,0,26.998,0,40.501,0c0-45.495,0-90.998,0-136.494
		c12.613-0.007,25.234,0,37.854-0.007c0,45.503,0,91.006,0,136.508c13.443-0.007,26.893-0.022,40.344,0.007
		c0.037-45.503,0-91.006,0.022-136.501c12.65-0.015,25.301-0.015,37.951,0c0.022,45.495-0.007,90.998,0.015,136.501
		c13.45-0.03,26.901-0.015,40.351-0.007c0.008-45.503,0-91.006,0-136.508c12.621,0.015,25.234,0,37.854,0.007
		c0,45.495,0,90.998,0,136.494c13.503,0,26.998,0,40.501,0c0-45.495,0-90.998,0-136.494c12.628,0,25.249,0,37.877,0
		c-0.008,45.495,0,90.998,0,136.494c13.495,0,26.998,0,40.501,0c0-45.495,0-90.998,0-136.494c12.553,0,25.114-0.007,37.667,0.008
		c0.03,45.495-0.015,90.998,0.022,136.501c13.451-0.03,26.893-0.015,40.344-0.007c0-45.503,0-91.006,0-136.508
		c12.621,0.007,25.234,0,37.854,0.007c0,45.495,0,90.998,0,136.494c13.503,0,26.998,0,40.501,0c0-45.495,0-90.998,0-136.494
		c12.621-0.007,25.249,0,37.877,0c0,45.495,0,90.998,0,136.494c13.495,0,26.998,0,40.501,0c0-45.495,0-90.998,0-136.494
		c12.613-0.007,25.234,0.008,37.847-0.007c0.007,45.503,0,91.006,0.007,136.508c13.443-0.007,26.893-0.022,40.351,0.007
		c0.022-45.503-0.007-91.006,0.015-136.501c12.65-0.015,25.301-0.015,37.951,0c0.03,45.495-0.015,90.998,0.022,136.501
		c13.451-0.03,26.901-0.007,40.344-0.007c0-45.503,0-91.006,0.008-136.508c12.568,0.015,25.144,0,37.72,0.007
		c0,45.495,0,90.998,0,136.494c13.495,0,26.998,0,40.501,0c0-45.495,0-90.998,0-136.494c12.613-0.007,25.234,0.008,37.847-0.007
		c0.007,45.503,0.007,91.006,0.007,136.508c13.443,0,26.893-0.03,40.344,0.007c0.037-45.503-0.007-90.998,0.022-136.501
		c12.651-0.015,25.301-0.015,37.951,0c0.022,45.495-0.007,90.998,0.015,136.501c13.45-0.03,26.901-0.015,40.351-0.007
		c0-45.503,0-91.006,0.008-136.508c12.613,0.015,25.226,0,37.847,0.007c0,45.495,0,90.998,0,136.494c13.503,0,26.998,0,40.501,0
		c0-45.495,0.007-90.998,0-136.494c12.621,0,25.249,0,37.877,0c0,45.495,0,90.998,0,136.494c13.495,0,26.998,0,40.501,0
		c0-45.495,0-90.998,0-136.494c12.553,0,25.114-0.007,37.667,0.008c0.022,45.495-0.015,90.998,0.022,136.501
		c13.443-0.03,26.893-0.015,40.344-0.007c0.008-45.503,0-91.006,0-136.508c12.621,0.015,25.234,0,37.854,0.007
		c0,45.495,0,90.998,0,136.494c13.503,0,26.998,0,40.501,0c0-45.495,0-90.998,0-136.494c12.262,0.008,24.523-0.015,36.792,0.008
		c0.015,67.23,0.015,134.46,0,201.69c-506.968,0.015-1013.936,0.007-1520.905,0.007
		C100.889,1551.103,100.889,1483.865,100.889,1416.635z"/>
</g>
</svg>
